<svg width="374.11666258578134" height="120.17977845580714" viewBox="-4 -3 374.11666258578134 120.17977845580714" class="css-1j8o68f"><defs id="SvgjsDefs2902"></defs><g id="SvgjsG2903" featurekey="HKaMnE-0" transform="matrix(4.039627762109044,0,0,4.039627762109044,-24.192571963586822,-9.045141203087741)" fill="#e84545"><g xmlns="http://www.w3.org/2000/svg" transform="translate(0,-1020.3622)"><path d="m 16.007461,1045.6087 a 0.50005179,0.50005179 0 0 0 -0.480468,0.3496 l -0.75,2.2403 a 0.50005179,0.50005179 0 0 0 0.632812,0.6328 l 0.585938,-0.1953 -0.472657,1.5722 a 0.50005179,0.50005179 0 1 0 0.957032,0.2891 l 0.75,-2.4961 a 0.50005179,0.50005179 0 0 0 -0.636719,-0.6191 l -0.548828,0.1836 0.43164,-1.2911 a 0.50005179,0.50005179 0 0 0 -0.46875,-0.666 z" style="color:;font-style:normal;font-variant:normal;font-weight:normal;font-stretch:normal;font-size:medium;line-height:normal;font-family:sans-serif;text-indent:0;text-align:start;text-decoration:none;text-decoration-line:none;text-decoration-style:solid;text-decoration-color:;letter-spacing:normal;word-spacing:normal;text-transform:none;direction:ltr;writing-mode:lr-tb;baseline-shift:baseline;text-anchor:start;white-space:normal;clip-rule:nonzero;display:inline;overflow:visible;visibility:visible;opacity:1;isolation:auto;mix-blend-mode:normal;color-interpolation:sRGB;color-interpolation-filters:linearRGB;solid-color:;solid-opacity:1;fill:#e84545;fill-opacity:1;fill-rule:evenodd;stroke:none;stroke-width:1.00000358;stroke-linecap:round;stroke-linejoin:round;stroke-miterlimit:4;stroke-dasharray:none;stroke-dashoffset:0;stroke-opacity:1;color-rendering:auto;image-rendering:auto;shape-rendering:auto;text-rendering:auto;enable-background:accumulate"></path><path d="m 13.5425,1029.1103 a 2.8222409,2.5583038 0 0 0 -2.8223,2.5566 2.8222409,2.5583038 0 0 0 0.1934,0.9336 2.8222409,2.5583038 0 0 0 -1.6621,2.3281 2.8222409,2.5583038 0 0 0 0.5644,1.5313 2.8222409,2.5583038 0 0 0 -0.5644,1.5293 2.8222409,2.5583038 0 0 0 1.5957,2.3008 2.8222409,2.5583038 0 0 0 -0.127,0.7617 2.8222409,2.5583038 0 0 0 2.8223,2.5586 2.8222409,2.5583038 0 0 0 2.2871,-1.0645 2.8222409,2.5583038 0 0 0 2.2852,1.0645 2.8222409,2.5583038 0 0 0 2.8222,-2.5586 2.8222409,2.5583038 0 0 0 -0.092,-0.6445 2.8222409,2.5583038 0 0 0 1.9063,-2.418 2.8222409,2.5583038 0 0 0 -0.5645,-1.5293 2.8222409,2.5583038 0 0 0 0.5645,-1.5313 2.8222409,2.5583038 0 0 0 -1.9668,-2.4375 2.8222409,2.5583038 0 0 0 0.1523,-0.8242 2.8222409,2.5583038 0 0 0 -2.8222,-2.5566 2.8222409,2.5583038 0 0 0 -2.2872,1.0625 2.8222409,2.5583038 0 0 0 -2.2851,-1.0625 z m 2.4668,3.7461 a 0.50005173,0.50005173 0 0 1 0.4414,0.7168 l -1.1016,2.3847 2.0703,-0.3418 a 0.50005173,0.50005173 0 0 1 0.5352,0.7032 l -1.4941,3.2402 a 0.50005173,0.50005173 0 1 1 -0.9082,-0.418 l 1.1015,-2.3847 -2.0703,0.3418 a 0.50005173,0.50005173 0 0 1 -0.5351,-0.7032 l 1.4941,-3.2402 a 0.50005173,0.50005173 0 0 1 0.4668,-0.2988 z" style="display:inline;opacity:1;fill:#e84545;fill-opacity:1;stroke:none;stroke-width:1.00000346;stroke-linecap:round;stroke-linejoin:round;stroke-miterlimit:4;stroke-dasharray:none;stroke-dashoffset:0;stroke-opacity:1"></path><path d="m 16.007461,1021.8587 a 0.50005179,0.50005179 0 0 0 -0.480468,0.3496 l -0.75,2.2403 a 0.50005179,0.50005179 0 0 0 0.632812,0.6328 l 0.585938,-0.1953 -0.472657,1.5722 a 0.50005179,0.50005179 0 1 0 0.957032,0.2891 l 0.75,-2.4961 a 0.50005179,0.50005179 0 0 0 -0.636719,-0.6191 l -0.548828,0.1836 0.43164,-1.2911 a 0.50005179,0.50005179 0 0 0 -0.46875,-0.666 z" style="color:;font-style:normal;font-variant:normal;font-weight:normal;font-stretch:normal;font-size:medium;line-height:normal;font-family:sans-serif;text-indent:0;text-align:start;text-decoration:none;text-decoration-line:none;text-decoration-style:solid;text-decoration-color:;letter-spacing:normal;word-spacing:normal;text-transform:none;direction:ltr;writing-mode:lr-tb;baseline-shift:baseline;text-anchor:start;white-space:normal;clip-rule:nonzero;display:inline;overflow:visible;visibility:visible;opacity:1;isolation:auto;mix-blend-mode:normal;color-interpolation:sRGB;color-interpolation-filters:linearRGB;solid-color:;solid-opacity:1;fill:#e84545;fill-opacity:1;fill-rule:evenodd;stroke:none;stroke-width:1.00000358;stroke-linecap:round;stroke-linejoin:round;stroke-miterlimit:4;stroke-dasharray:none;stroke-dashoffset:0;stroke-opacity:1;color-rendering:auto;image-rendering:auto;shape-rendering:auto;text-rendering:auto;enable-background:accumulate"></path><path d="m 26.482071,1025.3607 a 0.50005179,0.50005179 0 0 0 -0.22461,0.062 l -2.287109,1.2324 a 0.50005179,0.50005179 0 0 0 0.01172,0.8887 l 0.515625,0.2597 -1.212891,0.6055 a 0.50005179,0.50005179 0 1 0 0.447266,0.8945 l 2.107422,-1.0527 a 0.50005179,0.50005179 0 0 0 0.002,-0.8945 l -0.550782,-0.2774 1.441407,-0.7754 a 0.50005179,0.50005179 0 0 0 -0.25,-0.9433 z" style="color:;font-style:normal;font-variant:normal;font-weight:normal;font-stretch:normal;font-size:medium;line-height:normal;font-family:sans-serif;text-indent:0;text-align:start;text-decoration:none;text-decoration-line:none;text-decoration-style:solid;text-decoration-color:;letter-spacing:normal;word-spacing:normal;text-transform:none;direction:ltr;writing-mode:lr-tb;baseline-shift:baseline;text-anchor:start;white-space:normal;clip-rule:nonzero;display:inline;overflow:visible;visibility:visible;opacity:1;isolation:auto;mix-blend-mode:normal;color-interpolation:sRGB;color-interpolation-filters:linearRGB;solid-color:;solid-opacity:1;fill:#e84545;fill-opacity:1;fill-rule:evenodd;stroke:none;stroke-width:1.00000358;stroke-linecap:round;stroke-linejoin:round;stroke-miterlimit:4;stroke-dasharray:none;stroke-dashoffset:0;stroke-opacity:1;color-rendering:auto;image-rendering:auto;shape-rendering:auto;text-rendering:auto;enable-background:accumulate"></path><path d="m 8.4820712,1043.3607 a 0.50005179,0.50005179 0 0 0 -0.2246094,0.062 l -2.2871094,1.2324 a 0.50005179,0.50005179 0 0 0 0.011719,0.8887 l 0.515625,0.2597 -1.2128907,0.6055 a 0.50005179,0.50005179 0 1 0 0.4472657,0.8945 l 2.1074218,-1.0527 a 0.50005179,0.50005179 0 0 0 0.00195,-0.8945 l -0.5507813,-0.2774 1.4414063,-0.7754 a 0.50005179,0.50005179 0 0 0 -0.25,-0.9433 z" style="color:;font-style:normal;font-variant:normal;font-weight:normal;font-stretch:normal;font-size:medium;line-height:normal;font-family:sans-serif;text-indent:0;text-align:start;text-decoration:none;text-decoration-line:none;text-decoration-style:solid;text-decoration-color:;letter-spacing:normal;word-spacing:normal;text-transform:none;direction:ltr;writing-mode:lr-tb;baseline-shift:baseline;text-anchor:start;white-space:normal;clip-rule:nonzero;display:inline;overflow:visible;visibility:visible;opacity:1;isolation:auto;mix-blend-mode:normal;color-interpolation:sRGB;color-interpolation-filters:linearRGB;solid-color:;solid-opacity:1;fill:#e84545;fill-opacity:1;fill-rule:evenodd;stroke:none;stroke-width:1.00000358;stroke-linecap:round;stroke-linejoin:round;stroke-miterlimit:4;stroke-dasharray:none;stroke-dashoffset:0;stroke-opacity:1;color-rendering:auto;image-rendering:auto;shape-rendering:auto;text-rendering:auto;enable-background:accumulate"></path><path d="m 5.5055086,1025.3587 a 0.50005179,0.50005179 0 0 0 -0.234375,0.9453 l 1.4414063,0.7754 -0.5507813,0.2774 a 0.50005179,0.50005179 0 0 0 0.00195,0.8945 l 2.1074218,1.0527 a 0.50005179,0.50005179 0 1 0 0.4472657,-0.8945 l -1.2128907,-0.6055 0.515625,-0.2597 a 0.50005179,0.50005179 0 0 0 0.011719,-0.8887 L 5.74574,1025.4232 a 0.50005179,0.50005179 0 0 0 -0.2402344,-0.064 z" style="color:;font-style:normal;font-variant:normal;font-weight:normal;font-stretch:normal;font-size:medium;line-height:normal;font-family:sans-serif;text-indent:0;text-align:start;text-decoration:none;text-decoration-line:none;text-decoration-style:solid;text-decoration-color:;letter-spacing:normal;word-spacing:normal;text-transform:none;direction:ltr;writing-mode:lr-tb;baseline-shift:baseline;text-anchor:start;white-space:normal;clip-rule:nonzero;display:inline;overflow:visible;visibility:visible;opacity:1;isolation:auto;mix-blend-mode:normal;color-interpolation:sRGB;color-interpolation-filters:linearRGB;solid-color:;solid-opacity:1;fill:#e84545;fill-opacity:1;fill-rule:evenodd;stroke:none;stroke-width:1.00000358;stroke-linecap:round;stroke-linejoin:round;stroke-miterlimit:4;stroke-dasharray:none;stroke-dashoffset:0;stroke-opacity:1;color-rendering:auto;image-rendering:auto;shape-rendering:auto;text-rendering:auto;enable-background:accumulate"></path><path d="m 23.505508,1043.3587 a 0.50005179,0.50005179 0 0 0 -0.234375,0.9453 l 1.441407,0.7754 -0.550782,0.2774 a 0.50005179,0.50005179 0 0 0 0.002,0.8945 l 2.107422,1.0527 a 0.50005179,0.50005179 0 1 0 0.447266,-0.8945 l -1.212891,-0.6055 0.515625,-0.2597 a 0.50005179,0.50005179 0 0 0 0.01172,-0.8887 l -2.287109,-1.2324 a 0.50005179,0.50005179 0 0 0 -0.240235,-0.064 z" style="color:;font-style:normal;font-variant:normal;font-weight:normal;font-stretch:normal;font-size:medium;line-height:normal;font-family:sans-serif;text-indent:0;text-align:start;text-decoration:none;text-decoration-line:none;text-decoration-style:solid;text-decoration-color:;letter-spacing:normal;word-spacing:normal;text-transform:none;direction:ltr;writing-mode:lr-tb;baseline-shift:baseline;text-anchor:start;white-space:normal;clip-rule:nonzero;display:inline;overflow:visible;visibility:visible;opacity:1;isolation:auto;mix-blend-mode:normal;color-interpolation:sRGB;color-interpolation-filters:linearRGB;solid-color:;solid-opacity:1;fill:#e84545;fill-opacity:1;fill-rule:evenodd;stroke:none;stroke-width:1.00000358;stroke-linecap:round;stroke-linejoin:round;stroke-miterlimit:4;stroke-dasharray:none;stroke-dashoffset:0;stroke-opacity:1;color-rendering:auto;image-rendering:auto;shape-rendering:auto;text-rendering:auto;enable-background:accumulate"></path></g></g><g id="SvgjsG2904" featurekey="J3GnXt-0" transform="matrix(1.6295349382127338,0,0,1.6295349382127338,106.65347114977655,37.2227903707236)" fill="#e84545"><path d="M8.86 6 c1.36 0 2.52 1.12 2.52 2.5 l-0.04 9.02 c0 1.38 -1.12 2.48 -2.5 2.48 l-4.92 0 c-1.36 0 -2.48 -1.1 -2.48 -2.48 l0 -9.02 c0 -1.38 1.12 -2.5 2.48 -2.5 l4.94 0 z M8.14 16.8 l0 -7.58 l-3.5 0 l0 7.58 l3.5 0 z M20.92 6 l3.2 0 l0 14 l-3.2 0 l-3.5 -7.28 l0 7.28 l-3.2 0 l0 -14 l3.2 0 l3.5 7.3 l0 -7.3 z M34.160000000000004 6 l0 14 l-3.2 0 l0 -14 l3.2 0 z M43.74 6 l3.2 0 l0 14 l-3.2 0 l-3.5 -7.28 l0 7.28 l-3.2 0 l0 -14 l3.2 0 l3.5 7.3 l0 -7.3 z M49.82 6 l9.92 0 l0 3.22 l-3.36 0 l0 10.78 l-3.2 0 l0 -10.78 l-3.36 0 l0 -3.22 z M71.42 9.22 l-5.6 0 l0 2.18 l4.02 0 l0 3.2 l-4.02 0 l0 2.2 l5.6 0 l0 3.2 l-8.8 0 l0 -14 l8.8 0 l0 3.22 z M77.50000000000001 6 l0 10.8 l5.16 0 l0 3.2 l-8.36 0 l0 0 l0 -14 l3.2 0 z M88.74000000000001 6 l0 10.8 l5.16 0 l0 3.2 l-8.36 0 l0 0 l0 -14 l3.2 0 z M99.98 6 l0 14 l-3.2 0 l0 -14 l3.2 0 z M112.76 9.22 l-6.7 0 l0 7.58 l3.5 0 l0 -2.2 l-1.76 0 l0 -3.2 l4.96 0 l0 6.1 c0 1.38 -1.12 2.5 -2.5 2.5 l-4.92 0 c-1.38 0 -2.48 -1.12 -2.48 -2.5 l0 -9 c0 -1.38 1.1 -2.5 2.48 -2.5 l7.42 0 l0 3.22 z M124.44 9.22 l-5.6 0 l0 2.18 l4.02 0 l0 3.2 l-4.02 0 l0 2.2 l5.6 0 l0 3.2 l-8.8 0 l0 -14 l8.8 0 l0 3.22 z M134.01999999999998 6 l3.2 0 l0 14 l-3.2 0 l-3.5 -7.28 l0 7.28 l-3.2 0 l0 -14 l3.2 0 l3.5 7.3 l0 -7.3 z M146.8 15.2 l3.2 0 l0 2.3 c0 1.38 -1.12 2.5 -2.5 2.5 l-4.9 0 c-1.38 0 -2.5 -1.12 -2.5 -2.5 l0 -9 c0 -1.38 1.12 -2.5 2.5 -2.5 l4.9 0 c1.38 0 2.5 1.12 2.5 2.5 l0 2.3 l-3.2 0 l0 -1.58 l-3.5 0 l0 7.58 l3.5 0 l0 -1.6 z M161.68 9.22 l-5.6 0 l0 2.18 l4.02 0 l0 3.2 l-4.02 0 l0 2.2 l5.6 0 l0 3.2 l-8.8 0 l0 -14 l8.8 0 l0 3.22 z"></path></g></svg>